<svg width="24" height="25" viewBox="0 0 24 25" fill="none" xmlns="http://www.w3.org/2000/svg">
<path fill-rule="evenodd" clip-rule="evenodd" d="M10.3099 2.91663H13.6899C13.9069 2.91663 14.0959 2.91663 14.2739 2.94463C14.6206 3.00017 14.9495 3.13609 15.2343 3.34151C15.519 3.54693 15.7518 3.81615 15.9139 4.12763C15.9979 4.28763 16.0569 4.46663 16.1259 4.67163L16.2369 5.00663C16.3135 5.27879 16.48 5.51695 16.7094 5.68223C16.9388 5.84751 17.2175 5.93014 17.4999 5.91663H20.4999C20.6988 5.91663 20.8896 5.99564 21.0302 6.1363C21.1709 6.27695 21.2499 6.46771 21.2499 6.66663C21.2499 6.86554 21.1709 7.0563 21.0302 7.19696C20.8896 7.33761 20.6988 7.41663 20.4999 7.41663H3.49988C3.30097 7.41663 3.1102 7.33761 2.96955 7.19696C2.8289 7.0563 2.74988 6.86554 2.74988 6.66663C2.74988 6.46771 2.8289 6.27695 2.96955 6.1363C3.1102 5.99564 3.30097 5.91663 3.49988 5.91663H6.58988C6.85698 5.91022 7.115 5.8184 7.32611 5.65463C7.53721 5.49086 7.69028 5.26375 7.76288 5.00663L7.87488 4.67163C7.94288 4.46663 8.00188 4.28763 8.08488 4.12763C8.24707 3.81602 8.47997 3.54673 8.76493 3.3413C9.04989 3.13587 9.37899 3.00002 9.72588 2.94463C9.90388 2.91663 10.0929 2.91663 10.3089 2.91663H10.3099ZM9.00788 5.91663C9.07809 5.77911 9.13663 5.63594 9.18288 5.48863L9.28288 5.18863C9.37388 4.91563 9.39488 4.86063 9.41588 4.82063C9.46986 4.71663 9.54746 4.62674 9.64245 4.55814C9.73744 4.48955 9.84718 4.44416 9.96288 4.42563C10.0932 4.41462 10.2241 4.41161 10.3549 4.41663H13.6449C13.9329 4.41663 13.9929 4.41863 14.0369 4.42663C14.1525 4.44506 14.2622 4.49029 14.3571 4.55871C14.4521 4.62712 14.5298 4.71682 14.5839 4.82063C14.6049 4.86063 14.6259 4.91563 14.7169 5.18963L14.8169 5.48963L14.8559 5.60163C14.8949 5.71163 14.9409 5.81563 14.9919 5.91663H9.00788Z" fill="#DC3545"/>
<path d="M5.91517 9.1168C5.90191 8.91828 5.81034 8.73316 5.66059 8.60217C5.51084 8.47118 5.31519 8.40503 5.11667 8.4183C4.91816 8.43156 4.73304 8.52313 4.60205 8.67288C4.47105 8.82263 4.40491 9.01828 4.41817 9.2168L4.88217 16.1688C4.96717 17.4508 5.03617 18.4868 5.19817 19.3008C5.36717 20.1458 5.65317 20.8518 6.24517 21.4048C6.83617 21.9588 7.56017 22.1978 8.41517 22.3088C9.23717 22.4168 10.2752 22.4168 11.5612 22.4168H12.4402C13.7252 22.4168 14.7642 22.4168 15.5862 22.3088C16.4402 22.1978 17.1642 21.9588 17.7562 21.4048C18.3472 20.8518 18.6332 20.1448 18.8022 19.3008C18.9642 18.4878 19.0322 17.4508 19.1182 16.1688L19.5822 9.2168C19.5954 9.01828 19.5293 8.82263 19.3983 8.67288C19.2673 8.52313 19.0822 8.43156 18.8837 8.4183C18.6852 8.40503 18.4895 8.47118 18.3398 8.60217C18.19 8.73316 18.0984 8.91828 18.0852 9.1168L17.6252 16.0168C17.5352 17.3638 17.4712 18.3018 17.3312 19.0068C17.1942 19.6918 17.0042 20.0538 16.7312 20.3098C16.4572 20.5658 16.0832 20.7318 15.3912 20.8218C14.6782 20.9148 13.7382 20.9168 12.3872 20.9168H11.6132C10.2632 20.9168 9.32317 20.9148 8.60917 20.8218C7.91717 20.7318 7.54317 20.5658 7.26917 20.3098C6.99617 20.0538 6.80617 19.6918 6.66917 19.0078C6.52917 18.3018 6.46517 17.3638 6.37517 16.0158L5.91517 9.1168Z" fill="#DC3545"/>
<path d="M9.42474 10.9204C9.62258 10.9005 9.82019 10.9601 9.97415 11.0859C10.1281 11.2117 10.2258 11.3935 10.2457 11.5914L10.7457 16.5914C10.7604 16.7864 10.6982 16.9795 10.5725 17.1294C10.4468 17.2793 10.2675 17.3742 10.0729 17.3938C9.87822 17.4133 9.68363 17.3561 9.5306 17.2342C9.37757 17.1123 9.27822 16.9355 9.25374 16.7414L8.75374 11.7414C8.73391 11.5435 8.79346 11.3459 8.91928 11.192C9.04511 11.038 9.22691 10.9403 9.42474 10.9204ZM14.5747 10.9204C14.7724 10.9403 14.954 11.0379 15.0798 11.1916C15.2056 11.3453 15.2653 11.5427 15.2457 11.7404L14.7457 16.7404C14.7209 16.9341 14.6216 17.1105 14.4687 17.2321C14.3159 17.3537 14.1216 17.4108 13.9273 17.3914C13.7329 17.372 13.5538 17.2776 13.4281 17.1282C13.3023 16.9788 13.2397 16.7862 13.2537 16.5914L13.7537 11.5914C13.7737 11.3937 13.8712 11.2121 14.025 11.0863C14.1787 10.9605 14.3771 10.9008 14.5747 10.9204Z" fill="#DC3545"/>
</svg>
